<svg fill="none" viewBox="0 0 24 24" xmlns="http://www.w3.org/2000/svg"><path d="m7.72796 5.53269c.2942-.29158.29631-.76645.00473-1.06065s-.76645-.29631-1.06065-.00473l-1.44114 1.42834c-.53618.53139-.98336.97457-1.30221 1.37159-.33442.41642-.5888.85407-.65676 1.38726-.01462.11471-.02193.2301-.02193.3455s.00731.23079.02193.34549c.06796.5332.32234.97081.65676 1.38731.31884.397.76603.8402 1.3022 1.3715l1.44115 1.4284c.2942.2916.76907.2895 1.06065-.0047s.28947-.7691-.00473-1.0607l-1.41038-1.3978c-.5749-.5698-.96025-.9534-1.21935-1.27599-.01188-.01479-.02336-.02929-.03444-.04351h8.93621c2.3473 0 4.25 1.9028 4.25 4.25s-1.9027 4.25-4.25 4.25h-7.99995c-.41421 0-.75.3358-.75.75s.33579.75.75.75h7.99995c3.1757 0 5.75-2.5744 5.75-5.75s-2.5743-5.75-5.75-5.75h-8.93621c.01108-.01421.02256-.02872.03444-.04351.2591-.32263.64445-.70616 1.21935-1.27595z" fill="rgb(0,0,0)"></path></svg>